<svg version="1.1" viewBox="86.88000000000001 120.72 411.6 338.4" xmlns="http://www.w3.org/2000/svg" style="max-height: 500px" width="411.6" height="338.4"><path fill-rule="evenodd" fill="#faf9f5" stroke="none" d="M 222.073 133.635 C 220.041 136.218, 220 137.221, 220 184.512 C 220 224.948, 220.230 232.946, 221.419 233.933 C 222.236 234.611, 225.098 234.981, 228.169 234.805 L 233.500 234.500 233.763 201.250 L 234.027 168 304 168 L 373.973 168 374.237 201.250 L 374.500 234.500 381 234.500 L 387.500 234.500 387.759 184.759 C 388.013 136.097, 387.975 134.975, 386.009 133.009 C 384.030 131.030, 382.790 131, 304.073 131 L 224.145 131 222.073 133.635 M 234 150.500 L 234 157 240 157 L 246 157 246 150.500 L 246 144 240 144 L 234 144 234 150.500 M 265 150 L 265 156 271.500 156 L 278 156 278 150 L 278 144 271.500 144 L 265 144 265 150 M 298 150 L 298 156 304 156 L 310 156 310 150 L 310 144 304 144 L 298 144 298 150 M 330.406 145.386 C 330.113 146.148, 330.015 148.735, 330.187 151.136 L 330.500 155.500 336.750 155.798 L 343 156.095 343 150.048 L 343 144 336.969 144 C 332.751 144, 330.777 144.417, 330.406 145.386 M 362 150.500 L 362 157 368 157 L 374 157 374 150.500 L 374 144 368 144 L 362 144 362 150.500 M 279.571 178.571 C 278.222 179.921, 278 183.885, 278 206.637 C 278 222.988, 278.396 233.872, 279.035 235.066 C 281.252 239.208, 282.733 238.528, 321.415 215.599 C 335.003 207.545, 334.559 206.786, 306.590 190.250 C 294.264 182.963, 283.496 177, 282.661 177 C 281.826 177, 280.436 177.707, 279.571 178.571 M 215.200 244.200 C 214.528 244.872, 213.969 248.281, 213.930 251.950 L 213.861 258.500 212.425 253.835 L 210.989 249.170 204.245 248.758 C 200.535 248.532, 185.678 248.256, 171.229 248.145 C 141.467 247.917, 141.571 247.887, 146.593 255.135 C 155.870 268.521, 181.858 284.777, 203.107 290.485 C 214.898 293.653, 228.449 294.899, 229.196 292.885 C 229.478 292.123, 229.662 281.022, 229.605 268.215 C 229.517 248.685, 229.258 244.776, 228 243.980 C 225.851 242.620, 216.622 242.778, 215.200 244.200 M 296.500 243.988 L 235.500 244.500 235.500 251 L 235.500 257.500 323 257.500 L 410.500 257.500 410.808 252.663 C 411.011 249.489, 410.573 246.997, 409.535 245.413 L 407.954 243 382.727 243.238 C 368.852 243.369, 330.050 243.707, 296.500 243.988 M 286.785 262.950 C 244.099 263.442, 238.894 263.675, 237.408 265.162 C 236.029 266.542, 235.727 269.240, 235.624 281.086 L 235.500 295.347 240 296.512 C 246.129 298.098, 249.910 300.212, 253.689 304.165 C 259.910 310.672, 260.738 318.437, 256.078 326.561 C 250.540 336.217, 235.085 348, 227.959 348 C 223.524 348, 222 350.751, 222 358.757 C 222 369.148, 221.931 369.110, 240.347 368.776 L 255.500 368.500 256.024 362.500 C 256.313 359.200, 257.071 355.572, 257.709 354.437 C 259.864 350.608, 267.793 344.133, 274.166 340.999 L 280.500 337.883 276.237 341.535 C 270.853 346.147, 267.041 352.598, 266.736 357.609 L 266.500 361.495 298 361.532 C 315.325 361.553, 330.962 361.948, 332.750 362.410 L 336 363.250 336 359.093 C 336 354.571, 333.919 348.714, 331.212 345.612 C 330.205 344.459, 331.429 344.960, 334.184 346.828 C 340.941 351.411, 343.404 355.343, 344 362.500 L 344.500 368.500 360.765 368.775 L 377.031 369.050 378.102 366.275 C 379.359 363.018, 378.858 351.458, 377.397 349.997 C 376.842 349.442, 374.154 348.408, 371.424 347.700 C 360.952 344.984, 347.434 333.449, 344.016 324.314 C 341.755 318.270, 341.371 309.142, 343.159 303.899 C 347.568 290.961, 368.622 276.089, 389 271.517 C 400.151 269.016, 401.187 268.465, 400.816 265.242 L 400.500 262.500 367.500 262.450 C 349.350 262.422, 313.028 262.647, 286.785 262.950 M 323.459 395.880 C 314.122 400.121, 311.512 407.460, 312.185 427.590 C 312.641 441.236, 313.551 444.446, 318.155 448.633 C 326.135 455.891, 341.096 455.925, 348.831 448.702 C 353.301 444.529, 354.295 441.151, 354.771 428.500 C 355.528 408.401, 352.658 400.019, 343.616 395.913 C 338.209 393.458, 328.825 393.442, 323.459 395.880 M 420.459 395.880 C 415.375 398.189, 411.378 402.882, 409.937 408.236 C 409.274 410.695, 408.959 418.098, 409.160 426.440 C 409.470 439.244, 409.723 440.896, 412 444.930 C 415.474 451.086, 421.207 454, 429.842 454 C 438.134 454, 443.746 451.415, 447.638 445.804 C 450.347 441.899, 450.500 441.114, 450.500 431.090 L 450.500 420.500 441.651 420.210 C 430.928 419.858, 429.787 420.526, 430.202 426.912 L 430.500 431.500 434.750 431.807 C 438.733 432.096, 439 432.303, 439 435.103 C 439 438.839, 435.046 443, 431.496 443 C 430.068 443, 427.593 442.324, 425.995 441.498 C 422.293 439.583, 421.722 436.638, 422.161 421.721 C 422.568 407.892, 423.734 405.709, 430.446 406.202 C 433.882 406.455, 434.862 407.068, 436.915 410.250 C 439.256 413.878, 439.525 414, 445.168 414 C 450.681 414, 451 413.867, 451 411.565 C 451 405.592, 445.495 398.107, 439.128 395.422 C 434.425 393.439, 425.342 393.662, 420.459 395.880 M 102.708 395.626 C 102.318 396.015, 102 409.105, 102 424.714 L 102 453.095 108.250 452.798 L 114.500 452.500 114.783 437.500 L 115.066 422.500 119.365 432.500 L 123.663 442.500 127.674 442.800 L 131.685 443.100 135.964 432.300 C 138.318 426.360, 140.455 421.275, 140.713 421 C 140.971 420.725, 141.097 422.300, 140.994 424.500 C 140.891 426.700, 140.850 434.012, 140.903 440.750 L 141 453 147.015 453 L 153.031 453 152.765 424.250 L 152.500 395.500 145.861 395.207 L 139.223 394.914 133.394 409.553 C 129.098 420.341, 127.369 423.706, 126.821 422.346 C 126.412 421.331, 123.867 414.875, 121.166 408 L 116.255 395.500 109.835 395.209 C 106.304 395.049, 103.097 395.237, 102.708 395.626 M 162.667 395.667 C 162.300 396.033, 162 409.035, 162 424.560 C 162 446.284, 162.288 452.868, 163.250 453.143 C 163.938 453.339, 171.588 453.365, 180.250 453.201 L 196 452.902 196 447.558 C 196 441.081, 195.851 441, 183.918 441 L 175 441 175 435.500 L 175 430 184.050 430 L 193.100 430 192.800 424.250 L 192.500 418.500 183.750 418.211 L 175 417.922 175 412.461 L 175 407 185 407 L 195 407 195 401 L 195 395 179.167 395 C 170.458 395, 163.033 395.300, 162.667 395.667 M 203.750 395.565 C 203.338 395.988, 203 409.083, 203 424.667 C 203 446.637, 203.281 453.012, 204.250 453.055 C 213.733 453.474, 229.939 452.634, 232.427 451.595 C 236.699 449.810, 241.665 443.878, 243.170 438.763 C 244.825 433.135, 244.781 414.575, 243.101 409.664 C 241.516 405.032, 236.829 399.493, 232.602 397.257 C 229.267 395.493, 205.199 394.082, 203.750 395.565 M 252.710 395.623 C 252.320 396.014, 252 409.105, 252 424.714 L 252 453.095 258.250 452.798 L 264.500 452.500 264.500 424 L 264.500 395.500 258.960 395.206 C 255.913 395.045, 253.101 395.232, 252.710 395.623 M 274.667 395.667 C 274.300 396.033, 274 409.083, 274 424.667 L 274 453 280.500 453 L 287 453 287 442 L 287 431 296.050 431 L 305.100 431 304.800 425.250 L 304.500 419.500 295.750 419.211 L 287 418.922 287 412.961 L 287 407 296.933 407 C 308.438 407, 308.493 406.941, 307.125 396 C 306.985 394.881, 275.772 394.561, 274.667 395.667 M 363.667 395.667 C 363.300 396.033, 363 409.083, 363 424.667 L 363 453 369.500 453 L 376 453 376 443 C 376 433.682, 376.136 433, 377.991 433 C 379.511 433, 381.167 435.362, 385 443 L 390.018 453 396.509 453 C 400.079 453, 403 452.710, 403 452.355 C 403 452, 400.558 447.157, 397.573 441.592 L 392.146 431.475 395.414 429.332 C 400.013 426.317, 402.441 420.803, 402.385 413.500 C 402.315 404.413, 398.900 399.154, 391.316 396.449 C 387.371 395.042, 364.926 394.407, 363.667 395.667 M 458.607 396.582 C 458.273 397.452, 458 409.790, 458 424 C 458 438.210, 458.273 450.548, 458.607 451.418 C 459.126 452.772, 461.581 453, 475.607 453 L 492 453 492 447.500 C 492 443.846, 491.581 441.950, 490.750 441.852 C 490.063 441.771, 488.825 441.612, 488 441.500 C 487.175 441.388, 483.012 441.229, 478.750 441.148 L 471 441 471 435.538 L 471 430.075 480.250 429.788 L 489.500 429.500 489.811 425.176 C 490.272 418.773, 489.147 418, 479.378 418 L 471 418 471 412.535 L 471 407.070 481.250 406.785 L 491.500 406.500 491.824 403.112 C 492.002 401.248, 491.881 398.661, 491.555 397.362 C 490.963 395.004, 490.938 395, 475.088 395 C 461.535 395, 459.125 395.231, 458.607 396.582 M 327.861 407.910 C 325.692 409.664, 325.472 410.693, 325.155 420.536 C 324.966 426.430, 325.111 433.257, 325.479 435.708 C 326.059 439.579, 326.597 440.352, 329.582 441.599 C 333.583 443.270, 337.107 442.644, 339.676 439.805 C 341.258 438.057, 341.500 435.936, 341.500 423.807 C 341.500 410.317, 341.417 409.756, 339.139 407.912 C 336.116 405.464, 330.885 405.463, 327.861 407.910 M 216 424.490 L 216 442.227 220.750 441.557 C 230.724 440.149, 231 439.663, 231 423.546 C 231 409.420, 230.146 407.925, 221.666 407.222 L 216 406.752 216 424.490 M 376 414.500 L 376 422 380.277 422 C 386.538 422, 389 419.887, 389 414.515 C 389 408.708, 387.165 407, 380.929 407 L 376 407 376 414.500" style="--darkreader-inline-fill: var(--darkreader-background-faf9f5, #1e1b0f); --darkreader-inline-stroke: none;" data-darkreader-inline-fill="" data-darkreader-inline-stroke=""/></svg>